<svg width="480" height="450" viewBox="0 0 480 450" xmlns="http://www.w3.org/2000/svg">
  <defs>
    <style>
      .bg { fill: #0d1117; }
      .title { font-family: -apple-system, BlinkMacSystemFont, 'Segoe UI', Helvetica, Arial, sans-serif; font-size: 16px; font-weight: 600; fill: #58a6ff; }
      .subtitle { font-family: -apple-system, BlinkMacSystemFont, 'Segoe UI', Helvetica, Arial, sans-serif; font-size: 12px; fill: #8b949e; }
      .lang-name { font-family: -apple-system, BlinkMacSystemFont, 'Segoe UI', Helvetica, Arial, sans-serif; font-size: 13px; font-weight: 600; fill: #c9d1d9; }
      .lang-stats { font-family: -apple-system, BlinkMacSystemFont, 'Segoe UI', Helvetica, Arial, sans-serif; font-size: 12px; fill: #8b949e; }
      .bar-bg { fill: #21262d; }
    </style>
  </defs>
  <rect class="bg" width="480" height="450" rx="6"/>
  <rect x="0.5" y="0.5" width="479" height="449" rx="6" fill="none" stroke="#30363d" stroke-width="1"/>
  <text x="20" y="32" class="title">📊 My Code Contributions</text>
  <text x="20" y="52" class="subtitle">2.0M lines added • 4.0k commits • 146 repos analyzed</text>

  <g transform="translate(20, 85)">
    <circle cx="6" cy="8" r="6" fill="#3178c6"/>
    <text x="18" y="12" class="lang-name">TypeScript</text>
    <rect x="0" y="20" width="300" height="10" class="bar-bg" rx="5"/>
    <rect x="0" y="20" width="120.15795654668163" height="10" fill="#3178c6" rx="5"/>
    <text x="315" y="14" class="lang-stats">800.1k lines</text>
    <text x="315" y="30" class="lang-stats" style="fill: #58a6ff;">40.1%</text>
  </g>

  <g transform="translate(20, 125)">
    <circle cx="6" cy="8" r="6" fill="#f1e05a"/>
    <text x="18" y="12" class="lang-name">JavaScript</text>
    <rect x="0" y="20" width="300" height="10" class="bar-bg" rx="5"/>
    <rect x="0" y="20" width="96.18934962190347" height="10" fill="#f1e05a" rx="5"/>
    <text x="315" y="14" class="lang-stats">640.5k lines</text>
    <text x="315" y="30" class="lang-stats" style="fill: #58a6ff;">32.1%</text>
  </g>

  <g transform="translate(20, 165)">
    <circle cx="6" cy="8" r="6" fill="#3572A5"/>
    <text x="18" y="12" class="lang-name">Python</text>
    <rect x="0" y="20" width="300" height="10" class="bar-bg" rx="5"/>
    <rect x="0" y="20" width="39.97811415281447" height="10" fill="#3572A5" rx="5"/>
    <text x="315" y="14" class="lang-stats">266.2k lines</text>
    <text x="315" y="30" class="lang-stats" style="fill: #58a6ff;">13.3%</text>
  </g>

  <g transform="translate(20, 205)">
    <circle cx="6" cy="8" r="6" fill="#f34b7d"/>
    <text x="18" y="12" class="lang-name">C++</text>
    <rect x="0" y="20" width="300" height="10" class="bar-bg" rx="5"/>
    <rect x="0" y="20" width="15.620698044390425" height="10" fill="#f34b7d" rx="5"/>
    <text x="315" y="14" class="lang-stats">104.0k lines</text>
    <text x="315" y="30" class="lang-stats" style="fill: #58a6ff;">5.2%</text>
  </g>

  <g transform="translate(20, 245)">
    <circle cx="6" cy="8" r="6" fill="#00ADD8"/>
    <text x="18" y="12" class="lang-name">Go</text>
    <rect x="0" y="20" width="300" height="10" class="bar-bg" rx="5"/>
    <rect x="0" y="20" width="12.244260471616979" height="10" fill="#00ADD8" rx="5"/>
    <text x="315" y="14" class="lang-stats">81.5k lines</text>
    <text x="315" y="30" class="lang-stats" style="fill: #58a6ff;">4.1%</text>
  </g>

  <g transform="translate(20, 285)">
    <circle cx="6" cy="8" r="6" fill="#00B4AB"/>
    <text x="18" y="12" class="lang-name">Dart</text>
    <rect x="0" y="20" width="300" height="10" class="bar-bg" rx="5"/>
    <rect x="0" y="20" width="7.18238239360685" height="10" fill="#00B4AB" rx="5"/>
    <text x="315" y="14" class="lang-stats">47.8k lines</text>
    <text x="315" y="30" class="lang-stats" style="fill: #58a6ff;">2.4%</text>
  </g>

  <g transform="translate(20, 325)">
    <circle cx="6" cy="8" r="6" fill="#178600"/>
    <text x="18" y="12" class="lang-name">C#</text>
    <rect x="0" y="20" width="300" height="10" class="bar-bg" rx="5"/>
    <rect x="0" y="20" width="4.433836360742036" height="10" fill="#178600" rx="5"/>
    <text x="315" y="14" class="lang-stats">29.5k lines</text>
    <text x="315" y="30" class="lang-stats" style="fill: #58a6ff;">1.5%</text>
  </g>

  <g transform="translate(20, 365)">
    <circle cx="6" cy="8" r="6" fill="#89e051"/>
    <text x="18" y="12" class="lang-name">Shell</text>
    <rect x="0" y="20" width="300" height="10" class="bar-bg" rx="5"/>
    <rect x="0" y="20" width="4.193402408244136" height="10" fill="#89e051" rx="5"/>
    <text x="315" y="14" class="lang-stats">27.9k lines</text>
    <text x="315" y="30" class="lang-stats" style="fill: #58a6ff;">1.4%</text>
  </g>
</svg>