<svg width="480" height="450" viewBox="0 0 480 450" xmlns="http://www.w3.org/2000/svg">
  <defs>
    <style>
      .bg { fill: #0d1117; }
      .title { font-family: -apple-system, BlinkMacSystemFont, 'Segoe UI', Helvetica, Arial, sans-serif; font-size: 16px; font-weight: 600; fill: #58a6ff; }
      .subtitle { font-family: -apple-system, BlinkMacSystemFont, 'Segoe UI', Helvetica, Arial, sans-serif; font-size: 12px; fill: #8b949e; }
      .lang-name { font-family: -apple-system, BlinkMacSystemFont, 'Segoe UI', Helvetica, Arial, sans-serif; font-size: 13px; font-weight: 600; fill: #c9d1d9; }
      .lang-stats { font-family: -apple-system, BlinkMacSystemFont, 'Segoe UI', Helvetica, Arial, sans-serif; font-size: 12px; fill: #8b949e; }
      .bar-bg { fill: #21262d; }
    </style>
  </defs>
  <rect class="bg" width="480" height="450" rx="6"/>
  <rect x="0.5" y="0.5" width="479" height="449" rx="6" fill="none" stroke="#30363d" stroke-width="1"/>
  <text x="20" y="32" class="title">📊 My Code Contributions</text>
  <text x="20" y="52" class="subtitle">2.0M lines added • 3.9k commits • 144 repos analyzed</text>

  <g transform="translate(20, 85)">
    <circle cx="6" cy="8" r="6" fill="#3178c6"/>
    <text x="18" y="12" class="lang-name">TypeScript</text>
    <rect x="0" y="20" width="300" height="10" class="bar-bg" rx="5"/>
    <rect x="0" y="20" width="119.17742958361374" height="10" fill="#3178c6" rx="5"/>
    <text x="315" y="14" class="lang-stats">778.0k lines</text>
    <text x="315" y="30" class="lang-stats" style="fill: #58a6ff;">39.7%</text>
  </g>

  <g transform="translate(20, 125)">
    <circle cx="6" cy="8" r="6" fill="#f1e05a"/>
    <text x="18" y="12" class="lang-name">JavaScript</text>
    <rect x="0" y="20" width="300" height="10" class="bar-bg" rx="5"/>
    <rect x="0" y="20" width="98.11547255902966" height="10" fill="#f1e05a" rx="5"/>
    <text x="315" y="14" class="lang-stats">640.5k lines</text>
    <text x="315" y="30" class="lang-stats" style="fill: #58a6ff;">32.7%</text>
  </g>

  <g transform="translate(20, 165)">
    <circle cx="6" cy="8" r="6" fill="#3572A5"/>
    <text x="18" y="12" class="lang-name">Python</text>
    <rect x="0" y="20" width="300" height="10" class="bar-bg" rx="5"/>
    <rect x="0" y="20" width="40.6292923588481" height="10" fill="#3572A5" rx="5"/>
    <text x="315" y="14" class="lang-stats">265.2k lines</text>
    <text x="315" y="30" class="lang-stats" style="fill: #58a6ff;">13.5%</text>
  </g>

  <g transform="translate(20, 205)">
    <circle cx="6" cy="8" r="6" fill="#f34b7d"/>
    <text x="18" y="12" class="lang-name">C++</text>
    <rect x="0" y="20" width="300" height="10" class="bar-bg" rx="5"/>
    <rect x="0" y="20" width="14.774343833964286" height="10" fill="#f34b7d" rx="5"/>
    <text x="315" y="14" class="lang-stats">96.4k lines</text>
    <text x="315" y="30" class="lang-stats" style="fill: #58a6ff;">4.9%</text>
  </g>

  <g transform="translate(20, 245)">
    <circle cx="6" cy="8" r="6" fill="#00ADD8"/>
    <text x="18" y="12" class="lang-name">Go</text>
    <rect x="0" y="20" width="300" height="10" class="bar-bg" rx="5"/>
    <rect x="0" y="20" width="12.489443031175103" height="10" fill="#00ADD8" rx="5"/>
    <text x="315" y="14" class="lang-stats">81.5k lines</text>
    <text x="315" y="30" class="lang-stats" style="fill: #58a6ff;">4.2%</text>
  </g>

  <g transform="translate(20, 285)">
    <circle cx="6" cy="8" r="6" fill="#00B4AB"/>
    <text x="18" y="12" class="lang-name">Dart</text>
    <rect x="0" y="20" width="300" height="10" class="bar-bg" rx="5"/>
    <rect x="0" y="20" width="7.326204464614878" height="10" fill="#00B4AB" rx="5"/>
    <text x="315" y="14" class="lang-stats">47.8k lines</text>
    <text x="315" y="30" class="lang-stats" style="fill: #58a6ff;">2.4%</text>
  </g>

  <g transform="translate(20, 325)">
    <circle cx="6" cy="8" r="6" fill="#89e051"/>
    <text x="18" y="12" class="lang-name">Shell</text>
    <rect x="0" y="20" width="300" height="10" class="bar-bg" rx="5"/>
    <rect x="0" y="20" width="4.248114042836528" height="10" fill="#89e051" rx="5"/>
    <text x="315" y="14" class="lang-stats">27.7k lines</text>
    <text x="315" y="30" class="lang-stats" style="fill: #58a6ff;">1.4%</text>
  </g>

  <g transform="translate(20, 365)">
    <circle cx="6" cy="8" r="6" fill="#178600"/>
    <text x="18" y="12" class="lang-name">C#</text>
    <rect x="0" y="20" width="300" height="10" class="bar-bg" rx="5"/>
    <rect x="0" y="20" width="3.2397001259177034" height="10" fill="#178600" rx="5"/>
    <text x="315" y="14" class="lang-stats">21.1k lines</text>
    <text x="315" y="30" class="lang-stats" style="fill: #58a6ff;">1.1%</text>
  </g>
</svg>